<?xml version="1.0" encoding="UTF-8"?>
<svg width="358px" height="113px" viewBox="0 0 358 113" version="1.1" xmlns="http://www.w3.org/2000/svg" xmlns:xlink="http://www.w3.org/1999/xlink">
    <title>Logo - white</title>
    <g id="🎨-Style-Guide-(Design-System)" stroke="none" stroke-width="1" fill="none" fill-rule="evenodd">
        <g id="Logo---white" transform="translate(0.8472, 0.9414)" fill="#FFFFFF" fill-rule="nonzero">
            <polygon id="Path" points="71.4848222 110.058599 92.2856034 110.058599 92.2856034 51.7514231 57.5967989 -2.40080425e-14 37.237423 -1.73577627e-14 71.4848222 51.7514231"></polygon>
            <path d="M113.144978,39.3945366 C119.180135,39.3945366 123.750447,34.7070366 123.750447,29.1406304 C123.750447,23.5742241 119.180135,18.9453179 113.144978,18.9453179 C107.168416,18.9453179 102.53951,23.5742241 102.53951,29.1406304 C102.53951,34.7070366 107.168416,39.3945366 113.144978,39.3945366 Z M102.773885,110.058599 L123.516072,110.058599 L123.516072,46.2500054 L102.773885,46.2500054 L102.773885,110.058599 Z" id="Shape"></path>
            <path d="M133.652791,110.058599 L154.453572,110.058599 L154.453572,72.3242241 C154.453572,65.9960991 158.086385,61.8359429 163.711385,61.8359429 C169.394978,61.8359429 172.559041,65.3515679 172.559041,71.7968804 L172.559041,110.058599 L192.422322,110.058599 L192.422322,72.2070366 C192.422322,65.8789116 195.937947,61.8359429 201.562947,61.8359429 C207.422322,61.8359429 210.527791,65.2929741 210.527791,71.9726616 L210.527791,110.058599 L231.328572,110.058599 L231.328572,66.6406304 C231.328572,53.6914116 222.832478,44.9023491 210.35201,44.9023491 C200.859822,44.9023491 193.125447,50.2929741 190.66451,58.5546929 L190.254353,58.5546929 C188.437947,49.8828179 181.934041,44.9023491 172.85201,44.9023491 C164.121541,44.9023491 157.324666,49.9414116 154.863728,57.7343804 L154.453572,57.7343804 L154.453572,46.2500054 L133.652791,46.2500054 L133.652791,110.058599 Z" id="Path"></path>
            <path d="M281.953572,111.406255 C297.891072,111.406255 307.324666,99.1601616 307.324666,78.1835991 L307.324666,78.1250054 C307.324666,56.9726616 297.949666,44.9023491 281.894978,44.9023491 C272.812947,44.9023491 265.840291,49.6484429 262.617635,57.5585991 L262.207478,57.5585991 L262.207478,25.5078179 L241.406697,25.5078179 L241.406697,110.058599 L262.207478,110.058599 L262.207478,99.1601616 L262.617635,99.1601616 C265.723103,106.777349 272.69576,111.406255 281.953572,111.406255 Z M274.277791,94.5312554 C267.012166,94.5312554 262.207478,88.3203179 262.207478,78.1835991 L262.207478,78.1250054 C262.207478,67.9882866 267.07076,61.8359429 274.277791,61.8359429 C281.543416,61.8359429 286.28951,67.9296929 286.28951,78.1250054 L286.28951,78.1835991 C286.28951,88.2617241 281.60201,94.5312554 274.277791,94.5312554 Z" id="Shape"></path>
            <path d="M315.35201,110.058599 L336.152791,110.058599 L336.152791,76.1914116 C336.152791,67.1093804 340.898885,62.3046929 349.629353,62.3046929 C352.090291,62.3046929 354.492635,62.7734429 356.250447,63.4765679 L356.250447,45.7226616 C354.668416,45.1953179 352.85201,44.9023491 350.859822,44.9023491 C343.359822,44.9023491 338.32076,49.4726616 336.562947,57.5585991 L336.152791,57.5585991 L336.152791,46.2500054 L315.35201,46.2500054 L315.35201,110.058599 Z" id="Path"></path>
            <path d="M31.7268722,110.291992 C49.7092511,110.291992 60.6475771,99.4109349 61.0484581,84.9219481 L61.0484581,84.5210671 L42.4361233,84.5210671 L42.3215859,85.0937543 C41.5198238,91.0497014 37.9118943,94.8867058 31.9559471,94.8867058 C24.7400881,94.8867058 20.6167401,88.8162213 20.6167401,77.8206265 L20.6167401,77.7633578 C20.6167401,66.9395693 24.8546256,60.6972785 31.8986784,60.6972785 C37.8546256,60.6972785 41.5198238,64.7060891 42.3215859,70.4902301 L42.3788546,71.0629173 L61.0484581,71.0629173 L60.9911894,70.6620362 C60.7048458,55.8294371 49.1365639,45.2919922 31.5550661,45.2919922 C12.1409692,45.2919922 0,57.6047675 0,77.7060891 L0,77.7633578 C0,97.9792169 12.0837004,110.291992 31.7268722,110.291992 Z" id="Path"></path>
        </g>
    </g>
</svg>