<?xml version="1.0" encoding="UTF-8"?>
<svg width="149px" height="292px" viewBox="0 0 149 292" version="1.1" xmlns="http://www.w3.org/2000/svg" xmlns:xlink="http://www.w3.org/1999/xlink">
    <title>Group 14</title>
    <g id="ðŸ–Œï¸-Hi-Fi" stroke="none" stroke-width="1" fill="none" fill-rule="evenodd">
        <g id="Choosing-the-climbr" transform="translate(-337, -352)">
            <g id="Group-12" transform="translate(262, 274)">
                <g id="Group-10" transform="translate(0, 37.5567)">
                    <g id="Group-14" transform="translate(75.8935, 40.687)">
                        <path d="M81.1239707,226.305031 L91.9575587,226.304883 C97.5750105,226.304883 102.128855,230.858728 102.128855,236.476179 C102.128855,236.476229 102.128855,236.476278 102.128855,236.476327 L102.127965,277.413628 C102.127884,283.031022 97.5740633,287.584777 91.9566691,287.584777 L81.1230811,287.585072 C75.5056293,287.585072 70.9517848,283.031227 70.9517848,277.413776 C70.9517848,277.413726 70.9517848,277.413677 70.9517848,277.413628 L70.9526744,236.476327 C70.9527559,230.858933 75.5065765,226.305179 81.1239707,226.305179 Z" id="Rectangle" fill="#878787" transform="translate(86.5403, 256.945) rotate(-20) translate(-86.5403, -256.945)"></path>
                        <path d="M40.8095636,224.692395 L51.6430213,224.692466 C57.2604454,224.692466 61.8142784,229.246267 61.8143176,234.863691 L61.8147453,275.801013 C61.8147845,281.418465 57.2609718,285.972341 51.6435199,285.97238 C51.6434963,285.97238 51.6434726,285.97238 51.643449,285.97238 L40.8099912,285.972238 C35.1925671,285.972238 30.6387341,281.418437 30.6386949,275.801013 L30.6382673,234.863691 C30.6382281,229.246239 35.1920408,224.692363 40.8094926,224.692324 C40.8095163,224.692324 40.8095399,224.692324 40.8095636,224.692324 Z" id="Rectangle-Copy-5" fill="#878787" transform="translate(46.2265, 255.3324) rotate(9) translate(-46.2265, -255.3324)"></path>
                        <path d="M34.4432666,110.324427 L79.7882149,110.324427 C90.9487088,110.324427 94.9957735,111.486467 99.0758833,113.668533 C103.155993,115.8506 106.358087,119.052694 108.540154,123.132803 C110.72222,127.212913 111.884259,131.259978 111.884259,142.420472 L111.884259,204.201666 C111.884259,215.362159 110.72222,219.409224 108.540154,223.489334 C106.358087,227.569444 103.155993,230.771538 99.0758833,232.953604 C94.9957735,235.135671 90.9487088,236.29771 79.7882149,236.29771 L34.4432666,236.29771 C23.2827727,236.29771 19.235708,235.135671 15.1555982,232.953604 C11.0754885,230.771538 7.87339449,227.569444 5.69132792,223.489334 C3.50926135,219.409224 2.34722222,215.362159 2.34722222,204.201666 L2.34722222,142.420472 C2.34722222,131.259978 3.50926135,127.212913 5.69132792,123.132803 C7.87339449,119.052694 11.0754885,115.8506 15.1555982,113.668533 C19.235708,111.486467 23.2827727,110.324427 34.4432666,110.324427 Z" id="Rectangle" fill="#A09F9F"></path>
                        <ellipse id="Oval" fill="#878787" cx="57.1157407" cy="57.9007634" rx="57.1157407" ry="57.9007634"></ellipse>
                        <path d="M77.5400719,142.597237 L99.016694,166.419993 L127.018969,155.144133 C134.227394,152.235444 142.429357,155.716969 145.344416,162.92282 L145.35596,162.91815 L146.312618,165.249779 C149.2295,172.460136 145.748951,180.669885 138.538594,183.586766 C138.534748,183.588322 138.530902,183.589876 138.527054,183.591429 L104.672874,197.225475 C102.782151,197.988405 100.823076,198.311702 98.9089805,198.243473 C93.5664947,200.428699 87.2031489,199.168171 83.1166453,194.635419 L54.7341524,163.153545 C49.5259918,157.376651 49.9870414,148.471504 55.7639355,143.263344 C55.7684033,143.259316 55.7728736,143.255291 55.7773465,143.251269 L57.6632817,141.555379 C63.4416051,136.359337 72.3366296,136.825576 77.5400719,142.597237 Z" id="Combined-Shape" fill="#878787"></path>
                    </g>
                </g>
            </g>
        </g>
    </g>
</svg>